# File created by Blade
# Date/Time:  Thu Sep 25 19:43:58 2014
# Frame Rate: 120.000 fps
#------------------------------------------------------
:FULLY-SPECIFIED
:DEGREES
1004
root 2.775316 14.151879 -9.742627 22.564349 33.523285 -16.301774
Spine 10.983137 9.496703 -36.760889
Head 5.780395 -8.753433 2.601306
LeftShoulder 6.166167 4.898352 15.726349
LeftArm 33.438714 11.353243 -36.434824
LeftForeArm 25.934275 -0.000000 18.784455
LeftHand -36.069688 -0.000000 102.081994
LeftHandThumb1 -26.253704 0.000000 33.147579
RightShoulder -12.053711 22.509272 -46.216137
RightArm 71.269060 43.416344 43.696169
RightForeArm 26.504316 0.000000 23.123756
RightHand 4.117106 -0.000000 -5.255886
RightHandThumb1 -24.326973 -0.000000 -32.862282
LeftUpLeg -136.266598 33.816456 -8.467512
LeftLeg 119.702459 -0.000000 -0.000000
LeftFoot -22.308992 -29.268847 -10.189963
LeftToeBase 12.108387 -0.000000 -0.000000
RightUpLeg 0.742393 -26.743921 -40.244736
RightLeg 11.087143 -0.000000 -0.000000
RightFoot 2.525011 -30.870823 1.383675
RightToeBase 6.211639 -0.000000 -0.000000
1005
root 2.764802 14.164167 -9.768593 22.847019 33.747760 -16.139934
Spine 11.108454 9.268228 -36.706411
Head 5.364287 -8.825224 2.670176
LeftShoulder 6.204578 4.842606 15.684519
LeftArm 33.429927 11.262359 -36.464610
LeftForeArm 25.956131 -0.000000 18.894996
LeftHand -36.108044 -0.000000 101.948207
LeftHandThumb1 -26.253704 0.000000 33.147579
RightShoulder -11.986067 22.451666 -46.268242
RightArm 71.050352 43.574177 43.627524
RightForeArm 26.420320 -0.000000 23.247817
RightHand 4.068227 -0.000000 -5.267299
RightHandThumb1 -24.326973 -0.000000 -32.862282
LeftUpLeg -136.231268 33.338252 -8.275335
LeftLeg 119.560722 -0.000000 -0.000000
LeftFoot -22.274524 -28.754142 -10.783280
LeftToeBase 11.454399 -0.000000 -0.000000
RightUpLeg 0.560886 -26.529000 -40.233389
RightLeg 11.428739 -0.000000 -0.000000
RightFoot 2.243123 -31.244240 1.815676
RightToeBase 6.169976 -0.000000 -0.000000
1006
root 2.754368 14.178317 -9.794304 23.164097 33.988746 -15.979722
Spine 11.211023 9.022002 -36.644057
Head 4.922172 -8.912882 2.776789
LeftShoulder 6.294631 4.285556 15.643659
LeftArm 33.041281 11.508977 -36.696255
LeftForeArm 26.086274 -0.000000 19.004786
LeftHand -36.074459 0.000000 101.807584
LeftHandThumb1 -26.253704 0.000000 33.147579
RightShoulder -11.938127 22.301569 -46.253082
RightArm 70.880079 43.728392 43.415762
RightForeArm 26.539646 -0.000000 23.219225
RightHand 4.266865 -0.000000 -5.359210
RightHandThumb1 -24.326973 -0.000000 -32.862282
LeftUpLeg -136.227847 32.847462 -8.082426
LeftLeg 119.404388 -0.000000 -0.000000
LeftFoot -22.101806 -28.314664 -11.685257
LeftToeBase 11.070079 -0.000000 -0.000000
RightUpLeg 0.351500 -26.338049 -40.205098
RightLeg 11.791436 -0.000000 -0.000000
RightFoot 1.836120 -31.603537 2.475310
RightToeBase 6.160087 -0.000000 -0.000000
1007
root 2.740849 14.194039 -9.823251 23.517319 34.214520 -15.825601
Spine 11.259838 8.772376 -36.582586
Head 4.463845 -9.034809 2.870747
LeftShoulder 6.320947 4.251501 15.581627
LeftArm 33.081284 11.402528 -36.729342
LeftForeArm 26.166726 -0.000000 19.082863
LeftHand -36.114645 -0.000000 101.663567
LeftHandThumb1 -26.253704 0.000000 33.147579
RightShoulder -11.875256 22.213547 -46.263714
RightArm 70.632819 43.844947 43.195346
RightForeArm 26.507961 -0.000000 23.215314
RightHand 4.162840 0.000000 -5.330276
RightHandThumb1 -24.326973 -0.000000 -32.862282
LeftUpLeg -136.248045 32.372470 -7.879055
LeftLeg 119.246762 -0.000000 -0.000000
LeftFoot -22.058878 -27.794461 -12.168678
LeftToeBase 10.657287 -0.000000 -0.000000
RightUpLeg 0.062589 -26.117218 -40.149918
RightLeg 12.206036 -0.000000 -0.000000
RightFoot 1.381494 -32.003442 3.172998
RightToeBase 6.272124 -0.000000 -0.000000
